{"scene":0,"asset":{"generator":"ImageToStl.com","version":"2.0"},"scenes":[{"name":"Scene","nodes":[0]}],"nodes":[{"name":"Node0","children":[1,2,3,4,5,6,7,8,9,10]},{"name":"Node1","mesh":0},{"name":"Node2","mesh":1},{"name":"Node3","mesh":2},{"name":"Node4","mesh":3},{"name":"Node5","mesh":4},{"name":"Node6","mesh":5},{"name":"Node7","mesh":6},{"name":"Node8","mesh":7},{"name":"Node9","mesh":8},{"name":"Node10","mesh":9}],"materials":[{"name":"Material.002","pbrMetallicRoughness":{"baseColorFactor":[0.800212,0.016004,0.014072,1.0],"metallicFactor":0.5,"roughnessFactor":0.75},"emissiveFactor":[0.0,0.0,0.0],"doubleSided":true},{"name":"Material.003","pbrMetallicRoughness":{"baseColorFactor":[0.620929,0.173638,0.800638,1.0],"metallicFactor":0.5,"roughnessFactor":0.75},"emissiveFactor":[0.0,0.0,0.0],"doubleSided":true},{"name":"x1","pbrMetallicRoughness":{"baseColorFactor":[0.0,0.0,0.0,1.0],"metallicFactor":0.0,"roughnessFactor":1.0},"doubleSided":true}],"meshes":[{"name":"Mesh0","primitives":[{"indices":3,"material":0,"attributes":{"POSITION":0,"NORMAL":1,"TEXCOORD_0":2}}]},{"name":"Mesh0","primitives":[{"indices":7,"material":2,"attributes":{"POSITION":4,"NORMAL":5,"TEXCOORD_0":6}}]},{"name":"Mesh0","primitives":[{"indices":11,"material":2,"attributes":{"POSITION":8,"NORMAL":9,"TEXCOORD_0":10}}]},{"name":"Mesh0","primitives":[{"indices":15,"material":2,"attributes":{"POSITION":12,"NORMAL":13,"TEXCOORD_0":14}}]},{"name":"Mesh0","primitives":[{"indices":19,"material":2,"attributes":{"POSITION":16,"NORMAL":17,"TEXCOORD_0":18}}]},{"name":"Mesh0","primitives":[{"indices":23,"material":2,"attributes":{"POSITION":20,"NORMAL":21,"TEXCOORD_0":22}}]},{"name":"Mesh0","primitives":[{"indices":27,"material":2,"attributes":{"POSITION":24,"NORMAL":25,"TEXCOORD_0":26}}]},{"name":"Mesh0","primitives":[{"indices":31,"material":2,"attributes":{"POSITION":28,"NORMAL":29,"TEXCOORD_0":30}}]},{"name":"Mesh0","primitives":[{"indices":35,"material":2,"attributes":{"POSITION":32,"NORMAL":33,"TEXCOORD_0":34}}]},{"name":"Mesh0","primitives":[{"indices":39,"material":2,"attributes":{"POSITION":36,"NORMAL":37,"TEXCOORD_0":38}}]}],"accessors":[{"bufferView":0,"componentType":5126,"count":120,"type":"VEC3","min":[-0.19216178,-0.22054337,-0.06464901],"max":[0.21898352,0.16394553,0.10456154]},{"bufferView":1,"componentType":5126,"count":120,"type":"VEC3"},{"bufferView":2,"componentType":5126,"count":120,"type":"VEC2"},{"bufferView":3,"componentType":5123,"count":2124,"type":"SCALAR"},{"bufferView":4,"componentType":5126,"count":559,"type":"VEC3","min":[-0.11110269,-0.009600643,-0.020588838],"max":[-0.0015900694,0.060816426,0.09234042]},{"bufferView":5,"componentType":5126,"count":559,"type":"VEC3"},{"bufferView":6,"componentType":5126,"count":559,"type":"VEC2"},{"bufferView":7,"componentType":5123,"count":8640,"type":"SCALAR"},{"bufferView":8,"componentType":5126,"count":559,"type":"VEC3","min":[0.02287037,-0.00914857,-0.023402456],"max":[0.133524,0.060102254,0.08982971]},{"bufferView":9,"componentType":5126,"count":559,"type":"VEC3"},{"bufferView":10,"componentType":5126,"count":559,"type":"VEC2"},{"bufferView":11,"componentType":5123,"count":8640,"type":"SCALAR"},{"bufferView":12,"componentType":5126,"count":559,"type":"VEC3","min":[0.025022767,0.06626388,-0.031983048],"max":[0.13112529,0.10043064,0.08026434]},{"bufferView":13,"componentType":5126,"count":559,"type":"VEC3"},{"bufferView":14,"componentType":5126,"count":559,"type":"VEC2"},{"bufferView":15,"componentType":5123,"count":8640,"type":"SCALAR"},{"bufferView":16,"componentType":5126,"count":559,"type":"VEC3","min":[-0.10790411,0.06415364,-0.029308237],"max":[-0.005035013,0.102803,0.08291386]},{"bufferView":17,"componentType":5126,"count":559,"type":"VEC3"},{"bufferView":18,"componentType":5126,"count":559,"type":"VEC2"},{"bufferView":19,"componentType":5123,"count":8640,"type":"SCALAR"},{"bufferView":20,"componentType":5126,"count":325,"type":"VEC3","min":[-0.0077974256,-0.024746297,0.07968814],"max":[0.033365946,-0.00472794,0.091999486]},{"bufferView":21,"componentType":5126,"count":325,"type":"VEC3"},{"bufferView":22,"componentType":5126,"count":325,"type":"VEC2"},{"bufferView":23,"componentType":5123,"count":5148,"type":"SCALAR"},{"bufferView":24,"componentType":5126,"count":559,"type":"VEC3","min":[0.15159625,-0.14064334,0.022429433],"max":[0.2588989,-0.041199896,0.04705094]},{"bufferView":25,"componentType":5126,"count":559,"type":"VEC3"},{"bufferView":26,"componentType":5126,"count":559,"type":"VEC2"},{"bufferView":27,"componentType":5123,"count":8640,"type":"SCALAR"},{"bufferView":28,"componentType":5126,"count":559,"type":"VEC3","min":[-0.2451048,-0.1318649,0.020374537],"max":[-0.13018498,-0.049212888,0.06465388]},{"bufferView":29,"componentType":5126,"count":559,"type":"VEC3"},{"bufferView":30,"componentType":5126,"count":559,"type":"VEC2"},{"bufferView":31,"componentType":5123,"count":8640,"type":"SCALAR"},{"bufferView":32,"componentType":5126,"count":559,"type":"VEC3","min":[0.031687114,-0.22104807,0.0066063777],"max":[0.13676551,-0.1827796,0.093485355]},{"bufferView":33,"componentType":5126,"count":559,"type":"VEC3"},{"bufferView":34,"componentType":5126,"count":559,"type":"VEC2"},{"bufferView":35,"componentType":5123,"count":8640,"type":"SCALAR"},{"bufferView":36,"componentType":5126,"count":559,"type":"VEC3","min":[-0.10532567,-0.22091456,0.0093174055],"max":[-0.0002472736,-0.18264608,0.09619638]},{"bufferView":37,"componentType":5126,"count":559,"type":"VEC3"},{"bufferView":38,"componentType":5126,"count":559,"type":"VEC2"},{"bufferView":39,"componentType":5123,"count":8640,"type":"SCALAR"}],"bufferViews":[{"target":34962,"buffer":0,"byteLength":1440,"byteOffset":0},{"target":34962,"buffer":0,"byteLength":1440,"byteOffset":1440},{"target":34962,"buffer":0,"byteLength":960,"byteOffset":2880},{"target":34963,"buffer":0,"byteLength":4248,"byteOffset":3840},{"target":34962,"buffer":0,"byteLength":6708,"byteOffset":8088},{"target":34962,"buffer":0,"byteLength":6708,"byteOffset":14796},{"target":34962,"buffer":0,"byteLength":4472,"byteOffset":21504},{"target":34963,"buffer":0,"byteLength":17280,"byteOffset":25976},{"target":34962,"buffer":0,"byteLength":6708,"byteOffset":43256},{"target":34962,"buffer":0,"byteLength":6708,"byteOffset":49964},{"target":34962,"buffer":0,"byteLength":4472,"byteOffset":56672},{"target":34963,"buffer":0,"byteLength":17280,"byteOffset":61144},{"target":34962,"buffer":0,"byteLength":6708,"byteOffset":78424},{"target":34962,"buffer":0,"byteLength":6708,"byteOffset":85132},{"target":34962,"buffer":0,"byteLength":4472,"byteOffset":91840},{"target":34963,"buffer":0,"byteLength":17280,"byteOffset":96312},{"target":34962,"buffer":0,"byteLength":6708,"byteOffset":113592},{"target":34962,"buffer":0,"byteLength":6708,"byteOffset":120300},{"target":34962,"buffer":0,"byteLength":4472,"byteOffset":127008},{"target":34963,"buffer":0,"byteLength":17280,"byteOffset":131480},{"target":34962,"buffer":0,"byteLength":3900,"byteOffset":148760},{"target":34962,"buffer":0,"byteLength":3900,"byteOffset":152660},{"target":34962,"buffer":0,"byteLength":2600,"byteOffset":156560},{"target":34963,"buffer":0,"byteLength":10296,"byteOffset":159160},{"target":34962,"buffer":0,"byteLength":6708,"byteOffset":169456},{"target":34962,"buffer":0,"byteLength":6708,"byteOffset":176164},{"target":34962,"buffer":0,"byteLength":4472,"byteOffset":182872},{"target":34963,"buffer":0,"byteLength":17280,"byteOffset":187344},{"target":34962,"buffer":0,"byteLength":6708,"byteOffset":204624},{"target":34962,"buffer":0,"byteLength":6708,"byteOffset":211332},{"target":34962,"buffer":0,"byteLength":4472,"byteOffset":218040},{"target":34963,"buffer":0,"byteLength":17280,"byteOffset":222512},{"target":34962,"buffer":0,"byteLength":6708,"byteOffset":239792},{"target":34962,"buffer":0,"byteLength":6708,"byteOffset":246500},{"target":34962,"buffer":0,"byteLength":4472,"byteOffset":253208},{"target":34963,"buffer":0,"byteLength":17280,"byteOffset":257680},{"target":34962,"buffer":0,"byteLength":6708,"byteOffset":274960},{"target":34962,"buffer":0,"byteLength":6708,"byteOffset":281668},{"target":34962,"buffer":0,"byteLength":4472,"byteOffset":288376},{"target":34963,"buffer":0,"byteLength":17280,"byteOffset":292848}],"buffers":[{"byteLength":310128,"uri":"data:application/octet-stream;base64,"}]}